<?xml version="1.0" encoding="utf-8"?>
<!-- Generator: Adobe Illustrator 24.2.3, SVG Export Plug-In . SVG Version: 6.00 Build 0)  -->
<svg version="1.0" id="Réteg_1" xmlns="http://www.w3.org/2000/svg" xmlns:xlink="http://www.w3.org/1999/xlink" x="0px" y="0px"
	 viewBox="0 0 800 800" style="enable-background:new 0 0 800 800;" xml:space="preserve">
<style type="text/css">
	.st0{fill:#020203;}
</style>
<g id="layer1" transform="translate(-7.1328025,-565.73124)">
	<path id="path3347" class="st0" d="M701.68,1030.02l-0.14-136.93l-21.89,76.5l-21.87-76.15l-0.13,103.95l-71.39-53.54l5.41-4.06
		l-0.25-266.52l67.86,0.18l20.34,71.25l20.37-71.35l100.39,0.33l-32.94,24.61l-0.06,381.28L701.68,1030.02z M47.21,698.21
		l-33.33-24.97l187.87,0.25l21.5,16.43l0.02,249.76l5.7,4.13L47.26,1080.16L47.21,698.21z M157.47,893.06l-0.07-144.14l-5.04-4.11
		L113.3,745l-0.09,181.26L157.47,893.06z M228.82,931.82l-0.03-241.92l22.04-16.51l131.88-0.01l21.99,16.58l0.08,279.94
		l-62.37,46.91L228.82,931.82z M333.28,744.67l-33.26,0.23l-5.2,3.99l0.07,144.24l43.69,32.77l0.12-176.93L333.28,744.67z
		 M410.43,970.16l-0.16-280.33l21.97-16.5l132.05,0.13l22.11,16.52l-0.15,241.36l-112.98,85.42L410.43,970.16z M520.29,893.03
		l-0.01-144.2l-5.56-4.25l-33.21,0.11l-5.34,4.11l0.33,176.65L520.29,893.03z"/>
</g>
<g>
	<g>
		<path d="M124.26,491.12c13.44,7.49,27.14,14.83,41.1,22c1.61-1.89,3.21-3.77,4.8-5.66c1.73-2.05,2.9-3.3,3.53-3.76
			c0.62-0.45,1.27-0.64,1.94-0.55c0.67,0.08,1.17,0.39,1.5,0.93c0.33,0.53,0.42,1.11,0.29,1.72c-0.22,0.98-1.48,2.8-3.81,5.47
			c-10.25,11.86-20.77,23.63-31.58,35.32c6.13,0.44,12.26,0.85,18.39,1.22c5.49,0.49,11.63,2.04,18.49,4.62
			c6.86,2.58,12.55,5.96,17.09,10.16c4.54,4.21,7.88,8.93,10,14.2c2.12,5.27,2.68,10.89,1.61,16.86
			c-1.97,10.97-8.71,21.29-20.65,30.82c-11.94,9.51-31.96,18.74-60.79,26.95c-8.41-4.25-18.19-8.91-29.28-14.04
			c-23.81,5.66-43.02,7.06-56.88,4.63c-9.89-1.73-16.86-5.06-20.84-9.88c-3.98-4.82-5.04-9.75-3.28-14.77
			c1.88-5.36,6.75-9.65,14.51-12.94c7.76-3.29,17.67-3.84,29.87-1.74c4.8,0.82,10.58,2.37,17.36,4.62
			c4.48-4.41,8.91-8.84,13.31-13.28c-5.47-0.45-10.93-0.93-16.4-1.43c-3.83-0.56-8.8-1.92-14.88-4.09
			c-6.09-2.17-10.79-4.84-14.09-7.97c-3.3-3.13-5.36-6.62-6.18-10.46c-0.82-3.84-0.56-7.66,0.76-11.46
			c2.1-6.04,6.2-10.97,12.21-14.84c3.82-2.47,9.33-4.3,16.51-5.55c0.1-0.41,0.2-0.83,0.3-1.24c2.06-6.33,7.31-13.09,15.54-20.33
			C92.92,509.4,106.3,501,124.26,491.12z M89.63,633.79c-17.26-8.59-31.63-14.01-43.57-16.09c-6.15-1.08-11.43-0.74-15.86,1.04
			c-3.03,1.18-4.96,2.95-5.77,5.32c-0.86,2.51-0.29,4.75,1.71,6.71c3.13,3.17,8.49,5.45,16.05,6.77
			C53.78,639.57,69.76,638.42,89.63,633.79z M120.41,563.41c-9.58-0.08-18.72-0.83-27.39-2.22c-9.65-1.56-16.16-3.82-19.49-6.7
			c-3.34-2.88-5.23-6.81-5.68-11.79c-6.05,2.24-9.88,5.65-11.42,10.28c-1.41,4.22-0.58,8.05,2.53,11.48
			c4.12,4.48,12.65,7.86,25.52,9.97c6.05,0.99,13.91,1.7,23.54,2.07C112.18,572.14,116.31,567.78,120.41,563.41z M152.11,528.44
			c-9.4-6.81-16.71-11.6-22.16-14.3c-5.44-2.7-10.39-4.41-14.89-5.12c-6.32-1-11.99-0.03-17.08,2.93
			c-5.09,2.96-8.42,6.84-9.93,11.69c-1.49,4.78-0.98,9,1.58,12.66c2.56,3.66,7.41,6.08,14.53,7.2c4.67,0.73,15.41,1.73,32.13,2.67
			C141.63,540.28,146.9,534.37,152.11,528.44z M82.42,609.03c6.58,2.54,11.94,4.73,16.04,6.61c4.11,1.88,11.34,5.48,21.87,10.71
			c20.11-5.09,30.7-11.41,32.32-18.52c0.5-2.21-0.08-4.35-1.74-6.41c-1.66-2.06-4.07-3.3-7.26-3.71c-3.91-0.51-8.81-0.83-14.69-0.98
			c-16.35-0.61-27.07-1.44-32.07-2.21C92.12,599.36,87.29,604.2,82.42,609.03z M113.87,576.97c17.6,0.92,29.69,1.66,36.36,2.53
			c9.12,1.18,15.64,4.01,19.63,8.57c3.98,4.56,5.44,9.6,4.28,15.15c-1.01,4.85-4.4,9.3-10.25,13.29
			c-5.86,3.99-17.58,8.45-35.5,13.08c7.21,2.88,14.45,5.71,21.74,8.51c11.2-4.38,20.07-9.57,26.7-15.5
			c6.63-5.92,10.64-12.83,12.17-20.66c1-5.13,0.36-10.35-1.87-15.66c-2.23-5.31-6.33-9.81-12.27-13.52
			c-5.95-3.72-13.15-6.1-21.69-7.21c-6.9-0.9-15.86-1.44-26.94-1.72C122.16,568.22,118.04,572.6,113.87,576.97z"/>
		<path d="M355.07,509.78c0.58,1.5,1.17,3.01,1.75,4.51c-9,3-15.76,6.04-20.24,9.17c-4.47,3.14-7.51,6.48-9.07,10.07
			c-1.56,3.58-2.65,9.46-3.25,17.63c-0.53,7.23-1.06,14.46-1.6,21.7c14.62-10.39,28.8-20.94,42.56-31.65
			c8.26,5.62,14.61,10.84,18.93,15.71c4.32,4.87,7.22,9.72,8.63,14.56c1.41,4.84,2.11,12.76,2.06,23.76
			c-0.03,5.22-0.05,10.44-0.08,15.66c-0.04,8.2-0.6,14.29-1.71,18.28c-1.11,3.99-3.32,7.94-6.69,11.84
			c-4.9,5.71-13.34,12.83-25.61,21.22c-8.82,6-14.39,10.12-16.52,12.45c-2.14,2.32-3.25,4.33-3.34,6.01
			c-0.05,0.91,0.3,1.73,1.05,2.45c0.75,0.72,1.83,1.1,3.24,1.14c0.86,0.02,2.06-0.1,3.6-0.38c1.54-0.28,2.74-0.41,3.6-0.39
			c2.03,0.05,3.54,0.53,4.53,1.46c0.98,0.93,1.45,2.2,1.39,3.81c-0.07,1.96-0.99,3.55-2.78,4.78c-2.43,1.7-5.36,2.51-8.76,2.43
			c-3.64-0.09-6.7-1.46-9.17-4.09c-2.47-2.63-3.58-5.77-3.38-9.41c0.14-2.52,1.27-5.45,3.35-8.78c2.08-3.34,7.12-9.08,14.89-17.27
			c7.76-8.2,12.67-14.46,14.94-18.73c2.27-4.27,3.88-9.49,4.85-15.64c-9.09-4.19-17.27-6.4-24.71-6.6c-9.5-0.25-19,1.5-28.63,5.24
			c-9.64,3.75-21.05,10.55-34.59,20.32c5.23,0.09,9.14,0.19,11.71,0.32c5.97,0.31,13.94,1.15,23.94,2.45
			c2.78,0.39,5.23,0.62,7.35,0.7c3.71,0.13,7.08-0.6,10.08-2.19c3-1.59,6.12-4.37,9.31-8.36c1.59,0.9,3.18,1.8,4.78,2.7
			c-8.87,10.77-17.99,21.49-27.35,32.14c-10.33-4.44-19.25-7.73-26.89-9.79c-7.64-2.07-15.41-3.34-23.37-3.83
			c-8.95-0.55-17.02-0.1-24.26,1.38c-7.24,1.48-12.52,3.61-15.82,6.45c-2.51,2.19-3.91,4.23-4.19,6.11
			c-0.2,1.32,0.45,3.31,1.95,5.97c1.08,1.78,1.51,3.43,1.29,4.96c-0.25,1.74-1.05,3.12-2.39,4.14c-1.34,1.02-2.76,1.47-4.26,1.35
			c-1.89-0.16-3.6-1.25-5.11-3.28c-1.52-2.03-2.05-4.41-1.63-7.12c0.51-3.27,2.01-6.4,4.48-9.4c2.46-3,7.56-7.29,15.15-12.93
			c7.58-5.64,12.51-10.09,14.92-13.3c2.41-3.21,3.8-6.41,4.21-9.62c0.31-2.44-0.15-4.41-1.39-5.91c-1.24-1.5-3.04-2.33-5.43-2.51
			c-4.47-0.33-8.49,2.38-12.14,8.15c-1.66-0.15-3.33-0.3-4.99-0.46c1.5-5.43,3.34-9.5,5.54-12.21c2.19-2.71,5.23-4.92,9.12-6.66
			c3.01-1.32,6.87-1.97,11.61-1.99c0.72-8.46-0.29-14.43-2.97-17.9c-2.69-3.47-6.91-5.42-12.7-5.89c-3.57-0.29-6.49,0.12-8.77,1.23
			c-2.28,1.11-4.74,3.39-7.4,6.82c-1.33-0.52-2.66-1.05-3.98-1.57c1.61-4.43,3.35-7.72,5.22-9.88c2.91-3.19,6.46-5.57,10.66-7.16
			c4.2-1.58,8.48-2.21,12.88-1.87c2.7,0.21,5.79,0.62,9.3,1.22c0.21-3.29,0.47-6.05,0.76-8.28c1.09-8.36,4.46-16.17,9.95-23.46
			c3.98-5.21,10.17-10.52,18.47-16c-7.86,2.04-13.15,2.94-15.79,2.76c-2.31-0.16-8.32-1.47-17.95-4.05
			c-3.75-1.07-6.26-1.66-7.55-1.77c-2.37-0.19-4.67,0.65-6.92,2.54c-2.25,1.89-4.29,5.5-6.12,10.84c-1.75-0.15-3.5-0.31-5.24-0.47
			c2.16-6.3,4.45-11.06,6.9-14.31c3.79-4.81,8.09-8.41,12.91-10.8c4.82-2.39,9.44-3.42,13.9-3.08c2.66,0.2,7.18,1.56,13.62,4.03
			c6.44,2.47,11.67,3.81,15.62,4.04c8.04,0.47,17.32-1.72,27.59-6.61c0.6,1.52,1.2,3.03,1.81,4.55
			c-14.02,4.95-24.13,11.26-30.18,19.13c-3.98,5.18-6.68,13.87-8.02,26.08c-1.78,16.3-3.57,32.6-5.35,48.89
			c-0.95,8.66-2.62,15.32-5.04,19.98c-2.43,4.66-7.35,10.6-14.92,17.75c9.82-4.19,17.38-8.64,22.75-13.28
			c5.37-4.64,8.87-9.1,10.57-13.32c1.7-4.23,3.04-11.62,4.04-22.17c1.12-11.88,2.24-23.76,3.37-35.64
			c1.05-11.11,3.1-19.29,6.08-24.55c2.99-5.26,7.71-9.8,14.1-13.66C328.53,518.57,339.59,514.43,355.07,509.78z M322.22,578.96
			c-0.12,1.57-0.23,3.15-0.35,4.72c9.11,4.02,17.76,6.12,25.82,6.34c4.82,0.13,9.07-0.23,12.73-1.06c3.66-0.84,7.94-2.41,12.79-4.72
			c-1.16-5.2-3.35-9.77-6.54-13.71c-3.2-3.95-8.33-8.02-15.33-12.26C341.83,565.23,332.12,572.13,322.22,578.96z M319.54,615.26
			c9.33-3.27,18-4.8,26.15-4.58c4.47,0.12,8.62,0.6,12.45,1.44c3.83,0.84,8.57,2.37,14.27,4.58c0.23-9,0.45-18,0.68-27
			c-5.45,2.17-10.05,3.6-13.77,4.33c-3.71,0.73-7.85,1.03-12.41,0.91c-8.24-0.23-16.76-2.23-25.43-6.02
			C320.84,597.71,320.19,606.48,319.54,615.26z"/>
		<path d="M493.92,509.98c11.71,0.65,20.97,1.81,27.8,3.6c10.3,2.61,19.65,6.59,28.11,11.99c8.46,5.4,15.56,11.98,21.26,19.79
			c5.7,7.81,9.45,16.48,11.12,26.07c1.55,8.89,0.72,17.88-2.65,26.94c-3.37,9.06-10.1,19.52-20.56,31.27
			c-10.46,11.75-21.74,20.9-33.59,27.42c-11.85,6.52-23.94,10.04-35.99,10.56c-12.9,0.56-25.6-1.93-37.83-7.44
			c-12.23-5.51-21.64-13.38-28.23-23.5c-6.6-10.12-9.84-21.37-9.99-33.7c-0.09-7.08,0.59-13.89,2-20.45
			c1.4-6.56,3.88-14.17,7.32-22.83c6.85-3.51,14.79-8.38,23.7-14.63c4.72-3.42,16.8-11.69,35.18-25.22
			C485.27,517.16,489.4,513.87,493.92,509.98z M454.18,545.7c-5.63,4.58-9.72,8.39-12.17,11.46c-3.26,4.07-5.96,8.99-8.11,14.77
			c-2.15,5.78-3.15,12.1-2.95,18.97c0.43,14.84,6.71,28.61,19.47,41.12c3.31-3.1,5.4-6.15,6.29-9.16c0.89-3,1.1-8.85,0.64-17.53
			C456.28,585.45,455.23,565.58,454.18,545.7z M488.1,531.23c-4.65-0.06-9.23-0.06-13.73-0.02c1.52,20.68,3.05,41.35,4.57,62.03
			c0.5,6.72,0.37,11.42-0.39,14.12c-0.76,2.7-2.32,5.53-4.7,8.5c-6.39,6.48-12.9,12.93-19.53,19.35c7.32,5.4,14.27,9.15,20.75,11.26
			c6.48,2.11,14.29,3.25,23.39,3.37C495,610.3,491.55,570.77,488.1,531.23z M495.06,559.01c5.43,4.08,10.55,6.94,15.31,8.6
			c4.75,1.66,9.84,2.31,15.21,1.96c4.95-0.33,9.41-1.61,13.35-3.83c3.94-2.22,7.92-5.68,11.9-10.37
			c-4.73-4.83-8.94-8.38-12.66-10.64c-6.83-4.07-13.91-7.16-21.29-9.3c-7.38-2.13-15.48-3.49-24.36-4.09
			C493.36,540.56,494.21,549.78,495.06,559.01z M499.06,602.73c4.73-5.15,9.17-8.84,13.4-11.05c4.23-2.21,9.25-3.5,15.07-3.89
			c6.11-0.4,11.74,0.25,16.93,1.98c5.19,1.73,10.97,4.94,17.42,9.62c0.93-7.06,0.98-13.12,0.2-18.21c-0.71-4.66-1.7-8.7-2.93-12.13
			c-0.96-2.53-2.61-5.63-4.93-9.32c-5.38,5.37-10.26,9.11-14.56,11.22c-4.3,2.11-9.23,3.35-14.78,3.72
			c-5.05,0.33-9.76-0.21-14.12-1.61c-4.36-1.4-9.44-4.08-15.18-8.08C496.76,577.57,497.91,590.15,499.06,602.73z M503.36,649.59
			c9.54-0.97,17.18-2.86,22.9-5.61c8.69-4.12,15.92-9.57,21.65-16.3c5.74-6.72,10.03-14.69,12.88-23.88
			c-11.44-8.23-22.17-12.01-32.58-11.32c-6.07,0.4-11.67,2.32-16.86,5.78c-3.84,2.47-7.68,6.47-11.6,12
			C500.96,623.38,502.16,636.49,503.36,649.59z"/>
		<path d="M662.74,494.81c1.52-0.23,3.05-0.45,4.57-0.68c1.71,6.21,3.42,12.41,5.12,18.62c7.66-7.62,15.14-15.28,22.43-22.99
			c16.71,6.77,28.91,12.23,36.16,16.68c7.26,4.44,12.63,8.85,16.03,13.27c3.39,4.42,6.73,11.24,9.97,20.46
			c7.58,21.6,15.15,43.19,22.73,64.79c-8.18,11.44-16.68,22.83-25.48,34.17c-10.5-1.78-19.36-2.94-26.68-3.41
			c-7.32-0.47-14.41-0.44-21.3,0.09c3.69,13.42,7.38,26.84,11.08,40.26c-14.67,2.21-29.36,4.26-44.06,6.16
			c-3.33-14.11-6.65-28.23-9.98-42.34c-11.23,2.09-20.31,4.77-27.26,8.12c-6.95,3.35-13.69,8.16-20.29,14.44
			c-1.51-1.24-3.03-2.48-4.53-3.72c8.63-11.4,16.08-19.62,22.68-24.63c6.6-5.01,14.95-9.16,25.08-12.53
			c-2.29-9.37-5.37-16.75-9.17-22.13c-3.81-5.38-9.47-9.99-16.92-13.89c-7.45-3.9-16.35-6.56-26.72-8.07
			c-0.28-1.46-0.57-2.91-0.85-4.37c4.57-2.98,8.53-5.95,11.89-8.9c7.93-6.94,15.7-13.94,23.31-20.97c-0.57-2.41-1.14-4.82-1.7-7.23
			c-1.59-6.75-3.41-11.6-5.43-14.57c-2.02-2.97-5.02-5.26-8.99-6.9c-3.97-1.63-8.05-2.2-12.28-1.7c-4.63,0.54-9.42,2.9-14.46,7.06
			c-1.11-0.99-2.22-1.99-3.33-2.99c3.84-4.99,7.77-8.8,11.83-11.42c4.06-2.62,8.79-4.26,14.24-4.93c6.04-0.75,11.84-0.13,17.45,1.87
			c5.61,1.99,9.99,4.81,13.11,8.47c3.12,3.66,5.64,8.85,7.51,15.58c3.38-3.4,6.72-6.8,10.02-10.22
			C666.61,509.1,664.67,501.96,662.74,494.81z M641.92,549.05c-6.43,5.97-12.98,11.91-19.64,17.81c5.26,1.51,9.87,3.21,13.81,5.1
			c3.94,1.89,8.29,4.49,13.06,7.78C646.75,569.52,644.33,559.28,641.92,549.05z M670.08,521.98c-3.35,3.34-6.73,6.66-10.15,9.98
			c12.22,47.47,24.45,94.95,36.67,142.42c4.71-0.66,9.41-1.34,14.11-2.04C697.17,622.22,683.63,572.1,670.08,521.98z M683.12,551.58
			c6.22,2.68,11.51,4.36,15.8,5.05c4.3,0.7,8.69,0.68,13.14-0.05c4.45-0.73,8.48-2.1,12.05-4.1c3.57-1.99,7.48-5.19,11.66-9.58
			c-2-5.84-4.5-10.54-7.48-14.11c-2.99-3.58-8-7.11-14.96-10.66c-6.96-3.55-16.59-7.13-28.76-10.86
			c-3.51,3.63-7.06,7.25-10.65,10.87C676.99,529.28,680.06,540.43,683.12,551.58z M693.41,588.96c4.99-3.9,9.32-6.75,13.07-8.56
			c3.74-1.81,7.73-3.06,11.98-3.76c4.25-0.7,8.51-0.82,12.79-0.37c4.28,0.45,9.84,1.7,16.72,3.71
			c-3.48-10.58-6.97-21.17-10.45-31.75c-4.75,4.35-8.94,7.43-12.51,9.24c-3.57,1.81-7.68,3.1-12.29,3.86
			c-4.4,0.72-8.61,0.85-12.6,0.39c-3.99-0.46-9.12-1.8-15.32-4.06C687.66,568.09,690.54,578.53,693.41,588.96z M700.77,615.73
			c8.87-1.05,17.87-1.23,27.04-0.54c9.18,0.69,20.3,2.52,33.53,5.41c-3.82-11.6-7.64-23.21-11.46-34.81
			c-6.61-2.49-12.07-4.04-16.46-4.62c-4.38-0.58-8.88-0.48-13.51,0.28c-4.63,0.76-8.77,2.09-12.43,4c-3.66,1.9-7.8,5.03-12.46,9.38
			C696.94,601.8,698.85,608.76,700.77,615.73z"/>
	</g>
</g>
</svg>
